<?xml version="1.0" encoding="UTF-8" standalone="no"?>
<!-- Created with Inkscape (http://www.inkscape.org/) -->

<svg
   xmlns:dc="http://purl.org/dc/elements/1.1/"
   xmlns:cc="http://creativecommons.org/ns#"
   xmlns:rdf="http://www.w3.org/1999/02/22-rdf-syntax-ns#"
   xmlns:svg="http://www.w3.org/2000/svg"
   xmlns="http://www.w3.org/2000/svg"
   xmlns:sodipodi="http://sodipodi.sourceforge.net/DTD/sodipodi-0.dtd"
   xmlns:inkscape="http://www.inkscape.org/namespaces/inkscape"
   width="324"
   height="366.16223"
   id="svg2"
   version="1.1"
   inkscape:version="0.47 r22583"
   sodipodi:docname="hex_approx.svg">
  <defs
     id="defs4">
    <inkscape:perspective
       sodipodi:type="inkscape:persp3d"
       inkscape:vp_x="0 : 526.18109 : 1"
       inkscape:vp_y="0 : 1000 : 0"
       inkscape:vp_z="744.09448 : 526.18109 : 1"
       inkscape:persp3d-origin="372.04724 : 350.78739 : 1"
       id="perspective10" />
  </defs>
  <sodipodi:namedview
     id="base"
     pagecolor="#ffffff"
     bordercolor="#666666"
     borderopacity="1.0"
     inkscape:pageopacity="0.0"
     inkscape:pageshadow="2"
     inkscape:zoom="1.4"
     inkscape:cx="91.907484"
     inkscape:cy="187.90407"
     inkscape:document-units="px"
     inkscape:current-layer="layer1"
     showgrid="false"
     inkscape:window-width="1280"
     inkscape:window-height="945"
     inkscape:window-x="0"
     inkscape:window-y="27"
     inkscape:window-maximized="1"
     showguides="true"
     inkscape:guide-bbox="true">
    <inkscape:grid
       type="xygrid"
       id="grid3609"
       empspacing="5"
       visible="true"
       enabled="true"
       snapvisiblegridlinesonly="true" />
  </sodipodi:namedview>
  <metadata
     id="metadata7">
    <rdf:RDF>
      <cc:Work
         rdf:about="">
        <dc:format>image/svg+xml</dc:format>
        <dc:type
           rdf:resource="http://purl.org/dc/dcmitype/StillImage" />
        <dc:title />
      </cc:Work>
    </rdf:RDF>
  </metadata>
  <g
     inkscape:label="Layer 1"
     inkscape:groupmode="layer"
     id="layer1"
     transform="translate(121.31834,138.32098)">
    <path
       style="fill:#008080;stroke:none"
       d="m 43.548012,-115.57378 0,-17.42513 17.172596,0 17.172592,0 0,17.42513 0,17.425137 -17.172592,0 -17.172596,0 0,-17.425137 z"
       id="path3611" />
    <path
       style="fill:#008080;stroke:none"
       d="m 3.252508,-115.59767 0,-17.42513 17.425132,0 17.425132,0 0,17.42513 0,17.425135 -17.425132,0 -17.425132,0 0,-17.425135 z"
       id="path3635" />
    <path
       style="fill:#008080;stroke:none"
       d="m -76.549544,-75.444105 0,-17.172592 17.172596,0 17.172592,0 0,17.172592 0,17.172596 -17.172592,0 -17.172596,0 0,-17.172596 z"
       id="path3637" />
    <path
       style="fill:#008080;stroke:none"
       d="m -36.648516,-75.444105 0,-17.172592 17.172592,0 17.172592,0 0,17.172592 0,17.172596 -17.172592,0 -17.172592,0 0,-17.172596 z"
       id="path3639" />
    <path
       style="fill:#008080;stroke:none"
       d="m 3.252508,-75.444105 0,-17.172592 17.425132,0 17.425132,0 0,17.172592 0,17.172596 -17.425132,0 -17.425132,0 0,-17.172596 z"
       id="path3641" />
    <path
       style="fill:#008080;stroke:none"
       d="m 43.658612,-75.444105 0,-17.172592 17.172592,0 17.172592,0 0,17.172592 0,17.172596 -17.172592,0 -17.172592,0 0,-17.172596 z"
       id="path3643" />
    <path
       style="fill:#008080;stroke:none"
       d="m 83.559636,-75.444105 0,-17.172592 17.172594,0 17.17259,0 0,17.172592 0,17.172596 -17.17259,0 -17.172594,0 0,-17.172596 z"
       id="path3645" />
    <path
       style="fill:#008080;stroke:none"
       d="m 123.46066,-75.444105 0,-17.172592 17.1726,0 17.17259,0 0,17.172592 0,17.172596 -17.17259,0 -17.1726,0 0,-17.172596 z"
       id="path3647" />
    <path
       style="fill:#008080;stroke:none"
       d="m -116.45057,-35.543077 0,-17.172596 17.172594,0 17.172596,0 0,17.172596 0,17.172592 -17.172596,0 -17.172594,0 0,-17.172592 z"
       id="path3649" />
    <path
       style="fill:#008080;stroke:none"
       d="m -76.549544,-35.543077 0,-17.172596 17.172596,0 17.172592,0 0,17.172596 0,17.172592 -17.172592,0 -17.172596,0 0,-17.172592 z"
       id="path3651" />
    <path
       style="fill:#008080;stroke:none"
       d="m -36.648516,-35.543077 0,-17.172596 17.172592,0 17.172592,0 0,17.172596 0,17.172592 -17.172592,0 -17.172592,0 0,-17.172592 z"
       id="path3653" />
    <path
       style="fill:#008080;stroke:none"
       d="m 3.252508,-35.543077 0,-17.172596 17.425132,0 17.425132,0 0,17.172596 0,17.172592 -17.425132,0 -17.425132,0 0,-17.172592 z"
       id="path3655" />
    <path
       style="fill:#008080;stroke:none"
       d="m 43.658612,-35.543077 0,-17.172596 17.172592,0 17.172592,0 0,17.172596 0,17.172592 -17.172592,0 -17.172592,0 0,-17.172592 z"
       id="path3657" />
    <path
       style="fill:#008080;stroke:none"
       d="m 83.559636,-35.543077 0,-17.172596 17.172594,0 17.17259,0 0,17.172596 0,17.172592 -17.17259,0 -17.172594,0 0,-17.172592 z"
       id="path3659" />
    <path
       style="fill:#008080;stroke:none"
       d="m 123.46066,-35.543077 0,-17.172596 17.1726,0 17.17259,0 0,17.172596 0,17.172592 -17.17259,0 -17.1726,0 0,-17.172592 z"
       id="path3661" />
    <path
       style="fill:#008080;stroke:none"
       d="m 163.36169,-35.543077 0,-17.172596 17.17258,0 17.1726,0 0,17.172596 0,17.172592 -17.1726,0 -17.17258,0 0,-17.172592 z"
       id="path3663" />
    <path
       style="fill:#008080;stroke:none"
       d="m -116.45057,4.357947 0,-17.172592 17.172594,0 17.172596,0 0,17.172592 0,17.172592 -17.172596,0 -17.172594,0 0,-17.172592 z"
       id="path3665" />
    <path
       style="fill:#008080;stroke:none"
       d="m -76.549544,4.357947 0,-17.172592 17.172596,0 17.172592,0 0,17.172592 0,17.172592 -17.172592,0 -17.172596,0 0,-17.172592 z"
       id="path3667" />
    <path
       style="fill:#008080;stroke:none"
       d="m -36.648516,4.357947 0,-17.172592 17.172592,0 17.172592,0 0,17.172592 0,17.172592 -17.172592,0 -17.172592,0 0,-17.172592 z"
       id="path3669" />
    <path
       style="fill:#008080;stroke:none"
       d="m 3.252508,4.357947 0,-17.172592 17.425132,0 17.425132,0 0,17.172592 0,17.172592 -17.425132,0 -17.425132,0 0,-17.172592 z"
       id="path3671" />
    <path
       style="fill:#008080;stroke:none"
       d="m 43.658612,4.357947 0,-17.172592 17.172592,0 17.172592,0 0,17.172592 0,17.172592 -17.172592,0 -17.172592,0 0,-17.172592 z"
       id="path3673" />
    <path
       style="fill:#008080;stroke:none"
       d="m 83.559636,4.357947 0,-17.172592 17.172594,0 17.17259,0 0,17.172592 0,17.172592 -17.17259,0 -17.172594,0 0,-17.172592 z"
       id="path3675" />
    <path
       style="fill:#008080;stroke:none"
       d="m 123.46066,4.357947 0,-17.172592 17.1726,0 17.17259,0 0,17.172592 0,17.172592 -17.17259,0 -17.1726,0 0,-17.172592 z"
       id="path3677" />
    <path
       style="fill:#008080;stroke:none"
       d="m 163.36169,4.357947 0,-17.172592 17.17258,0 17.1726,0 0,17.172592 0,17.172592 -17.1726,0 -17.17258,0 0,-17.172592 z"
       id="path3679" />
    <path
       style="fill:#008080;stroke:none"
       d="m 163.36169,44.258971 0,-17.172592 17.17258,0 17.1726,0 0,17.172592 0,17.172596 -17.1726,0 -17.17258,0 0,-17.172596 z"
       id="path3681" />
    <path
       style="fill:#008080;stroke:none"
       d="m 123.46066,44.258971 0,-17.172592 17.1726,0 17.17259,0 0,17.172592 0,17.172596 -17.17259,0 -17.1726,0 0,-17.172596 z"
       id="path3683" />
    <path
       style="fill:#008080;stroke:none"
       d="m 43.658612,44.258971 0,-17.172592 17.172592,0 17.172592,0 0,17.172592 0,17.172596 -17.172592,0 -17.172592,0 0,-17.172596 z"
       id="path3685" />
    <path
       style="fill:#008080;stroke:none"
       d="m 83.559636,44.258971 0,-17.172592 17.172594,0 17.17259,0 0,17.172592 0,17.172596 -17.17259,0 -17.172594,0 0,-17.172596 z"
       id="path3687" />
    <path
       style="fill:#008080;stroke:none"
       d="m 3.252508,44.258971 0,-17.172592 17.425132,0 17.425132,0 0,17.172592 0,17.172596 -17.425132,0 -17.425132,0 0,-17.172596 z"
       id="path3689" />
    <path
       style="fill:#008080;stroke:none"
       d="m -76.549544,44.258971 0,-17.172592 17.172596,0 17.172592,0 0,17.172592 0,17.172596 -17.172592,0 -17.172596,0 0,-17.172596 z"
       id="path3691" />
    <path
       style="fill:#008080;stroke:none"
       d="m -116.45057,44.258971 0,-17.172592 17.172594,0 17.172596,0 0,17.172592 0,17.172596 -17.172596,0 -17.172594,0 0,-17.172596 z"
       id="path3693" />
    <path
       style="fill:#008080;stroke:none"
       d="m -36.648516,44.258971 0,-17.172592 17.172592,0 17.172592,0 0,17.172592 0,17.172596 -17.172592,0 -17.172592,0 0,-17.172596 z"
       id="path3695" />
    <path
       style="fill:#008080;stroke:none"
       d="m -116.72827,84.412535 c 1.7e-4,-9.722716 0.068,-13.628712 0.1508,-8.679984 0.0828,4.948728 0.0826,12.903676 -3.1e-4,17.677668 -0.0829,4.773992 -0.15064,0.725036 -0.15048,-8.997684 z"
       id="path3697" />
    <path
       style="fill:#008080;stroke:none"
       d="m -116.45057,84.412535 0,-17.425128 17.172594,0 17.172596,0 0,17.425128 0,17.425135 -17.172596,0 -17.172594,0 0,-17.425135 z"
       id="path3699" />
    <path
       style="fill:#008080;stroke:none"
       d="m -36.648516,84.412535 0,-17.425128 17.172592,0 17.172592,0 0,17.425128 0,17.425135 -17.172592,0 -17.172592,0 0,-17.425135 z"
       id="path3701" />
    <path
       style="fill:#008080;stroke:none"
       d="m -76.549544,84.412535 0,-17.425128 17.172596,0 17.172592,0 0,17.425128 0,17.425135 -17.172592,0 -17.172596,0 0,-17.425135 z"
       id="path3703" />
    <path
       style="fill:#008080;stroke:none"
       d="m 3.252508,84.412535 0,-17.425128 17.425132,0 17.425132,0 0,17.425128 0,17.425135 -17.425132,0 -17.425132,0 0,-17.425135 z"
       id="path3705" />
    <path
       style="fill:#008080;stroke:none"
       d="m 43.658612,84.412535 0,-17.425128 17.172592,0 17.172592,0 0,17.425128 0,17.425135 -17.172592,0 -17.172592,0 0,-17.425135 z"
       id="path3707" />
    <path
       style="fill:#008080;stroke:none"
       d="m 83.559636,84.412535 0,-17.425128 17.172594,0 17.17259,0 0,17.425128 0,17.425135 -17.17259,0 -17.172594,0 0,-17.425135 z"
       id="path3709" />
    <path
       style="fill:#008080;stroke:none"
       d="m 123.46066,84.412535 0,-17.425128 17.1726,0 17.17259,0 0,17.425128 0,17.425135 -17.17259,0 -17.1726,0 0,-17.425135 z"
       id="path3711" />
    <path
       style="fill:#008080;stroke:none"
       d="m 163.36169,84.412535 0,-17.425128 17.17258,0 17.1726,0 0,17.425128 0,17.425135 -17.1726,0 -17.17258,0 0,-17.425135 z"
       id="path3713" />
    <path
       style="fill:#008080;stroke:none"
       d="m 163.36169,124.31356 0,-17.42513 17.17258,0 17.1726,0 0,17.42513 0,17.42513 -17.1726,0 -17.17258,0 0,-17.42513 z"
       id="path3715" />
    <path
       style="fill:#008080;stroke:none"
       d="m 83.559636,124.31356 0,-17.42513 17.172594,0 17.17259,0 0,17.42513 0,17.42513 -17.17259,0 -17.172594,0 0,-17.42513 z"
       id="path3717" />
    <path
       style="fill:#008080;stroke:none"
       d="m 43.658612,124.31356 0,-17.42513 17.172592,0 17.172592,0 0,17.42513 0,17.42513 -17.172592,0 -17.172592,0 0,-17.42513 z"
       id="path3719" />
    <path
       style="fill:#008080;stroke:none"
       d="m 3.252508,124.31356 0,-17.42513 17.425132,0 17.425132,0 0,17.42513 0,17.42513 -17.425132,0 -17.425132,0 0,-17.42513 z"
       id="path3721" />
    <path
       style="fill:#008080;stroke:none"
       d="m -76.549544,124.31356 0,-17.42513 17.172596,0 17.172592,0 0,17.42513 0,17.42513 -17.172592,0 -17.172596,0 0,-17.42513 z"
       id="path3723" />
    <path
       style="fill:#008080;stroke:none"
       d="m -116.45057,124.31356 0,-17.42513 17.172594,0 17.172596,0 0,17.42513 0,17.42513 -17.172596,0 -17.172594,0 0,-17.42513 z"
       id="path3725" />
    <path
       style="fill:#008080;stroke:none"
       d="m 123.46066,124.31356 0,-17.42513 17.1726,0 17.17259,0 0,17.42513 0,17.42513 -17.17259,0 -17.1726,0 0,-17.42513 z"
       id="path3727" />
    <path
       style="fill:#008080;stroke:none"
       d="m -36.648516,124.31356 0,-17.42513 17.172592,0 17.172592,0 0,17.42513 0,17.42513 -17.172592,0 -17.172592,0 0,-17.42513 z"
       id="path3729" />
    <path
       style="fill:#008080;stroke:none"
       d="m -76.549544,164.46712 0,-17.17259 17.172596,0 17.172592,0 0,17.17259 0,17.1726 -17.172592,0 -17.172596,0 0,-17.1726 z"
       id="path3731" />
    <path
       style="fill:#008080;stroke:none"
       d="m 3.252508,164.46712 0,-17.17259 17.425132,0 17.425132,0 0,17.17259 0,17.1726 -17.425132,0 -17.425132,0 0,-17.1726 z"
       id="path3733" />
    <path
       style="fill:#008080;stroke:none"
       d="m -36.648516,164.46712 0,-17.17259 17.172592,0 17.172592,0 0,17.17259 0,17.1726 -17.172592,0 -17.172592,0 0,-17.1726 z"
       id="path3735" />
    <path
       style="fill:#008080;stroke:none"
       d="m 43.658612,164.46712 0,-17.17259 17.172592,0 17.172592,0 0,17.17259 0,17.1726 -17.172592,0 -17.172592,0 0,-17.1726 z"
       id="path3737" />
    <path
       style="fill:#008080;stroke:none"
       d="m 83.559636,164.46712 0,-17.17259 17.172594,0 17.17259,0 0,17.17259 0,17.1726 -17.17259,0 -17.172594,0 0,-17.1726 z"
       id="path3739" />
    <path
       d="m -119.28571,-135 0,366.16224 M -79.285713,-135 l 0,366.16224 m 40,-366.16224 0,366.16224 M 0.71428657,-135 l 0,366.16224 M 40.714287,-135 l 0,366.16224 m 40,-366.16224 0,366.16224 M 120.71429,-135 l 0,366.16224 m 40,-366.16224 0,366.16224 m 40,-366.16224 0,366.16224 m -320,-366.16224 324.00001,0 m -324.00001,40.000001 324.00001,0 m -324.00001,40 324.00001,0 m -324.00001,40 324.00001,0 m -324.00001,40 324.00001,0 m -324.00001,40 324.00001,0 M -119.28571,105 204.7143,105 m -324.00001,40 324.00001,0 m -324.00001,40 324.00001,0 m -324.00001,40 324.00001,0"
       style="fill:none;stroke:#000000;stroke-width:1pt;stroke-linecap:butt;stroke-linejoin:miter;stroke-opacity:1"
       id="path2886" />
    <path
       style="fill:#008080;stroke:none"
       d="m 123.46066,164.46712 0,-17.17259 17.1726,0 17.17259,0 0,17.17259 0,17.1726 -17.17259,0 -17.1726,0 0,-17.1726 z"
       id="path3741" />
    <path
       style="fill:#008080;stroke:none"
       d="m 43.658612,204.36816 0,-17.1726 17.172592,0 17.172592,0 0,17.1726 0,17.17258 -17.172592,0 -17.172592,0 0,-17.17258 z"
       id="path3743" />
    <path
       style="fill:#008080;stroke:none"
       d="m 3.252508,204.36816 0,-17.1726 17.425132,0 17.425132,0 0,17.1726 0,17.17258 -17.425132,0 -17.425132,0 0,-17.17258 z"
       id="path3745" />
    <path
       style="fill:none;stroke:#fb0000;stroke-width:4;stroke-linecap:butt;stroke-linejoin:miter;stroke-miterlimit:4;stroke-opacity:1;stroke-dasharray:12, 4;stroke-dashoffset:0"
       d="m 41.70202,-136.32098 -161.02036,90.162251 0,187.999999 160.000004,83.99999 160.000006,-83.99999 0,-195.999999 -90.65723,-46.852551 -26.881116,-13.89243 -41.441304,-21.41727 z"
       id="path3747"
       sodipodi:nodetypes="ccccccccc" />
  </g>
</svg>
